PathFileType	4	(X/Y/Z)	C:\Users\Basilio\Documents\Thesis Gigler\squatting_fais\c3dfiles\044\SJ_pre5\markers_experimental.trc
DataRate	CameraRate	NumFrames	NumMarkers	Units	OrigDataRate	OrigDataStartFrame	OrigNumFrames
200.000000	200.000000	4	61	mm	200.000000	940	1880
Frame#	Time	FHD			LBHD			RBHD			C7			T10			CLAV			LSHO			LUUPA			LMUPA			LDUPA			LLEP			LMEP			LRAD			LUL			LRFIN			RSHO			RUPA1			RMUPA			RDUPA			RLEP			RMEP			RRAD			RUL			RUFIN			LASI			RASI			USACR			LSACR			RSACR			LTHI1			LTHI2			LTHI3			LTHI4			LLFC			LMFC			LTIB1			LTIB2			LTIB3			LTIB4			LLMAL			LMMAL			LHEE			LMT1			LMT2			LMT5			RTHI			RTHI2			RTHI3			RTHI4			RLFC			RMFC			RTIB1			RTIB2			RTIB3			RTIB4			RLMAL			RMMAL			RHEE			RMT1			RMT2			RMT5			
		X1	Y1	Z1	X2	Y2	Z2	X3	Y3	Z3	X4	Y4	Z4	X5	Y5	Z5	X6	Y6	Z6	X7	Y7	Z7	X8	Y8	Z8	X9	Y9	Z9	X10	Y10	Z10	X11	Y11	Z11	X12	Y12	Z12	X13	Y13	Z13	X14	Y14	Z14	X15	Y15	Z15	X16	Y16	Z16	X17	Y17	Z17	X18	Y18	Z18	X19	Y19	Z19	X20	Y20	Z20	X21	Y21	Z21	X22	Y22	Z22	X23	Y23	Z23	X24	Y24	Z24	X25	Y25	Z25	X26	Y26	Z26	X27	Y27	Z27	X28	Y28	Z28	X29	Y29	Z29	X30	Y30	Z30	X31	Y31	Z31	X32	Y32	Z32	X33	Y33	Z33	X34	Y34	Z34	X35	Y35	Z35	X36	Y36	Z36	X37	Y37	Z37	X38	Y38	Z38	X39	Y39	Z39	X40	Y40	Z40	X41	Y41	Z41	X42	Y42	Z42	X43	Y43	Z43	X44	Y44	Z44	X45	Y45	Z45	X46	Y46	Z46	X47	Y47	Z47	X48	Y48	Z48	X49	Y49	Z49	X50	Y50	Z50	X51	Y51	Z51	X52	Y52	Z52	X53	Y53	Z53	X54	Y54	Z54	X55	Y55	Z55	X56	Y56	Z56	X57	Y57	Z57	X58	Y58	Z58	X59	Y59	Z59	X60	Y60	Z60	X61	Y61	Z61	

941	4.7	-99.63038635253909	1586.17236328125	-903.8067626953127	-227.8582153320313	1550.735717773438	-990.383728027344	-282.8702697753907	1539.248046875	-833.9356079101565	-327.0465087890626	1409.795654296875	-911.236022949219	-474.3039550781251	1144.87353515625	-901.7972412109377	-221.350326538086	1312.798583984375	-907.9801025390627	-241.8930358886719	1360.959594726563	-1088.19482421875	-379.4833068847657	1232.241455078125	-1231.863647460938	-367.0848693847657	1184.2763671875	-1222.454467773438	-416.4171752929689	1179.45703125	-1259.138427734375	-440.1990966796876	1126.681518554688	-1271.718139648438	-502.6433410644532	1148.966430664063	-1219.716918945313	-494.7724609375001	893.2878417968752	-1123.2041015625	-456.468963623047	868.284851074219	-1176.132690429688	-436.4892578125001	895.0903320312502	-1090.151123046875	-260.4549560546876	1361.068115234375	-718.6841430664064	-376.0154724121094	1217.267700195313	-582.5618896484376	-358.9171447753907	1169.962646484375	-592.7539672851564	-401.4541320800782	1158.159057617188	-553.5665893554689	-417.7737121582032	1098.52978515625	-542.0042114257814	-491.7027282714845	1114.317626953125	-583.9586791992189	-486.1126708984376	860.366638183594	-677.8314208984376	-438.4472045898439	839.7265625000002	-624.8205566406251	-422.7837219238282	865.852722167969	-719.2492065429689	-391.8794250488282	900.0692138671877	-1014.556701660156	-387.215545654297	878.8174438476565	-802.2180175781252	-530.3695678710939	992.2266235351565	-895.0762939453127	-549.2916870117189	964.9143066406252	-922.4055175781252	-543.8657836914064	964.4751586914065	-866.0359497070315	-438.0390930175782	710.2009277343751	-1130.825805664063	-371.4001770019532	662.2480468750001	-1152.778442382813	-331.1882629394532	684.5771484375001	-1148.320556640625	-367.1047363281251	600.4282836914064	-1150.400024414063	-283.3446655273438	472.8448181152345	-1164.533203125	-259.0061035156251	460.4710693359376	-1046.638305664063	-301.0902404785157	299.3558959960938	-1090.19580078125	-346.8767395019532	265.1163330078126	-1159.223022460938	-317.6970825195313	254.1970825195313	-1123.921508789063	-359.7989501953126	187.0157470703125	-1091.085815429688	-451.8407592773439	93.49734497070314	-1135.009643554688	-428.4778442382814	100.461296081543	-1049.848388671875	-512.9387817382814	48.46064758300783	-1083.696899414063	-296.7371215820313	61.94550704956056	-1077.266723632813	-299.6524963378907	64.32262420654298	-1124.472045898438	-335.2707519531251	38.25401306152344	-1168.740600585938	-396.8015747070314	649.5637817382814	-696.1943969726564	-333.2126159667969	626.4969482421876	-686.1563110351564	-306.3669433593751	643.9639282226564	-691.8209228515626	-311.8024902343751	544.4168701171876	-698.4580688476564	-275.2076721191407	452.788299560547	-699.6777343750001	-273.8560180664063	444.700897216797	-817.794616699219	-270.7496643066407	320.4969482421876	-727.4009399414064	-365.2873840332032	283.9780578613282	-681.3104248046876	-330.0747680664063	261.1697692871094	-698.3479614257814	-342.3930664062501	211.2119445800782	-726.0303955078126	-470.4972534179689	96.59294891357425	-710.4135742187501	-442.5784606933595	98.95401000976565	-793.4011840820315	-525.3190917968751	50.15340423583986	-760.0532836914064	-311.7175292968751	63.1119956970215	-753.5251464843751	-310.7680358886719	61.20917892456056	-715.7802124023439	-352.2766113281251	40.33061599731446	-667.1277465820314	
942	4.705	-96.97115325927737	1580.27392578125	-904.090515136719	-225.0988464355469	1545.270751953125	-990.5194091796877	-280.0129089355469	1533.452026367188	-833.9824829101565	-324.7125244140626	1404.689331054688	-911.3464355468752	-473.9876403808595	1140.910400390625	-901.5083618164065	-219.6327362060547	1307.116088867188	-908.021423339844	-240.0672607421876	1355.14453125	-1088.326538085938	-378.8903503417969	1227.31591796875	-1231.541137695313	-366.6968688964844	1179.352661132813	-1222.222900390625	-415.7496032714845	1174.7109375	-1258.575439453125	-440.4474182128907	1122.209228515625	-1271.197143554688	-502.6229858398439	1145.179809570313	-1219.103759765625	-496.5775756835939	889.385437011719	-1122.541381835938	-457.8062133789064	864.3687133789065	-1175.78564453125	-438.1526489257814	891.1485595703127	-1089.821044921875	-258.3731384277344	1355.743286132813	-719.0011596679689	-375.4680786132813	1212.738891601563	-582.4773559570314	-358.1760253906251	1165.408447265625	-592.9830932617189	-401.1207885742189	1153.984130859375	-553.7622070312501	-417.7066955566407	1094.479614257813	-541.9684448242189	-491.5693359375001	1110.652709960938	-583.9783935546876	-487.2322387695314	856.4936523437502	-677.4699096679689	-439.5727539062501	835.8120117187502	-625.0655517578126	-423.9781494140626	862.000427246094	-718.9099121093751	-393.3763732910157	896.0155029296877	-1014.085388183594	-388.4802246093751	874.5662231445315	-802.1612548828127	-531.1433715820314	988.6179809570315	-894.5919189453127	-550.2507324218751	961.3845825195315	-921.7811279296877	-545.0252075195314	960.9146118164065	-865.3545532226565	-438.7160034179689	707.5425415039064	-1130.84619140625	-371.3038024902344	660.4047241210939	-1152.981079101563	-331.2875366210938	683.0379028320314	-1148.305297851563	-366.4180297851563	598.5643310546876	-1150.952392578125	-281.5191040039063	471.6124267578126	-1165.057250976563	-257.6900634765626	459.7589721679689	-1047.116333007813	-299.7900695800782	298.8730773925782	-1090.410034179688	-346.2782287597657	264.0545654296876	-1159.540405273438	-316.7761535644532	253.3355560302735	-1124.209838867188	-359.2581481933594	186.7818145751953	-1091.186645507813	-451.745574951172	93.42684173583986	-1134.993041992188	-428.388885498047	100.4775695800782	-1049.862915039063	-512.9018554687501	48.44840621948244	-1083.642822265625	-296.7363891601563	61.9823341369629	-1077.259033203125	-299.5927124023438	64.92604064941408	-1124.411987304688	-335.5212707519532	39.56055068969727	-1169.017700195313	-396.7054748535157	646.7445678710939	-695.6139526367189	-333.0616455078126	624.6527099609376	-686.0662841796876	-306.0653991699219	642.2999267578126	-691.5694580078126	-310.7280578613282	542.8749389648439	-697.8105468750001	-273.0162048339844	451.4220581054689	-698.7429809570314	-271.9036865234376	443.5848083496095	-817.0915527343752	-269.3625488281251	318.9661560058594	-727.2328491210939	-364.2546997070313	283.7118225097657	-681.0828247070314	-328.7998657226563	260.3682556152344	-698.2514038085939	-341.6488647460938	210.5962066650391	-725.8213500976564	-470.3964233398439	96.5671310424805	-710.3826293945314	-442.4851989746095	98.887077331543	-793.3796386718752	-525.0091552734376	49.79513549804689	-760.1673583984376	-313.7706298828126	61.44918060302736	-753.9382934570314	-310.7109375000001	61.31613159179689	-715.8333740234376	-352.2633361816407	40.34930801391602	-667.1245117187501	
943	4.71	-94.44638824462892	1574.276489257813	-903.9865722656252	-222.5427246093751	1539.174194335938	-990.553405761719	-277.5898132324219	1527.411987304688	-833.829528808594	-322.3645935058594	1399.628051757813	-911.3583984375002	-473.8464355468751	1136.984985351563	-901.1591796875002	-218.1444396972657	1301.18994140625	-908.0678710937502	-238.3190460205079	1349.49560546875	-1088.41064453125	-378.9356689453126	1222.571533203125	-1230.906494140625	-366.4269409179688	1174.2958984375	-1221.9716796875	-415.2823181152345	1170.061157226563	-1258.392944335938	-440.4804687500001	1117.8203125	-1270.805053710938	-502.5935668945314	1140.96923828125	-1218.419677734375	-498.4724121093751	885.4797973632815	-1122.046264648438	-460.1769409179689	860.1577148437502	-1175.103149414063	-439.915252685547	887.3381347656252	-1089.355712890625	-256.2662353515626	1350.315063476563	-719.1883544921876	-374.4467773437501	1208.416137695313	-582.8020019531251	-357.7243652343751	1160.802490234375	-592.8870849609376	-400.5490722656251	1149.551391601563	-553.7308959960939	-417.7717590332032	1090.41796875	-541.9831542968751	-491.6023254394532	1107.049072265625	-584.0687255859376	-488.5110168457032	852.701843261719	-677.1913452148439	-440.7955322265626	831.801208496094	-624.7371215820314	-425.3886108398439	858.3106079101565	-718.6321411132814	-395.1162719726564	891.6621093750002	-1013.559020996094	-390.171600341797	870.459411621094	-801.776306152344	-532.2348632812501	985.0532226562502	-894.1376953125002	-551.6773071289064	957.837341308594	-921.3040161132815	-546.1527709960939	957.3157958984377	-865.0319824218752	-439.2491149902345	704.9293823242189	-1130.645874023438	-371.2511291503907	658.8377075195314	-1152.914306640625	-331.5811157226563	681.6118774414064	-1148.177368164063	-365.7376403808594	596.6813354492189	-1151.537231445313	-279.3912963867188	470.4488830566407	-1165.513061523438	-256.3077087402344	458.6313476562501	-1047.656860351563	-298.8425598144532	298.3521728515626	-1090.615234375	-345.2988891601563	263.4273986816407	-1159.85888671875	-315.9848937988282	252.8423767089844	-1124.521606445313	-358.5422973632813	186.0052185058594	-1091.436645507813	-451.6558227539064	93.31652832031251	-1134.990844726563	-428.346160888672	100.5444717407227	-1049.853149414063	-512.8835449218751	48.51755905151369	-1083.6484375	-296.7331237792969	62.14692687988283	-1077.291381835938	-300.5272827148438	64.3202590942383	-1123.62744140625	-335.9307250976563	38.60074615478516	-1168.496826171875	-396.6255798339845	644.0393676757814	-695.0848999023439	-332.4942321777344	622.1584472656251	-684.9774780273439	-306.0802307128907	640.8547973632814	-691.0418090820314	-309.3437500000001	540.9918823242189	-697.2537841796876	-271.1369323730469	450.1631164550782	-698.3732910156251	-270.2312316894532	442.481170654297	-816.5725097656252	-267.9565429687501	317.9996643066407	-726.9157714843751	-363.0700988769532	282.7902526855469	-680.7582397460939	-327.7684936523438	259.4956665039063	-698.0684814453126	-340.9547424316407	209.8635864257813	-725.7219238281251	-470.3071899414064	96.55877685546878	-710.4107055664064	-442.350311279297	98.86408996582034	-793.4088134765627	-524.9974975585939	49.82192611694337	-760.2197265625001	-311.7303466796876	63.06540679931642	-753.5186157226564	-310.7469177246094	61.25703811645509	-715.7891845703126	-352.2574462890626	40.33592605590821	-667.1313476562501	
944	4.715	-91.74303436279298	1567.878051757813	-903.9863281250002	-219.8715057373047	1533.474243164063	-990.649353027344	-274.8486328125001	1521.839599609375	-834.2600097656252	-320.3504638671876	1394.365600585938	-911.3831176757815	-473.6807861328126	1133.080322265625	-900.8276977539065	-216.3549804687501	1295.379028320313	-908.2050781250002	-236.7451629638672	1343.801879882813	-1088.354248046875	-378.2559509277344	1217.668090820313	-1230.669067382813	-366.3189086914063	1169.313720703125	-1221.444946289063	-415.3256225585939	1165.310424804688	-1257.943237304688	-440.6218261718751	1113.32421875	-1270.480346679688	-502.5844726562501	1137.060424804688	-1217.844848632813	-500.0086669921876	881.4639892578127	-1121.270874023438	-461.8336486816407	856.183044433594	-1174.239990234375	-441.499969482422	883.4351806640627	-1089.019287109375	-254.1021423339844	1344.481323242188	-718.9297485351564	-373.5472106933594	1203.804077148438	-582.8227539062501	-357.3795166015626	1156.110473632813	-592.7792968750001	-400.1208801269532	1145.4951171875	-553.6229858398439	-417.6328125000001	1086.133544921875	-541.7272949218751	-491.2100830078126	1102.945556640625	-584.1401367187501	-489.6429748535157	848.7932739257815	-676.7208251953126	-441.8212890625001	827.6584472656252	-624.4327392578126	-426.6529235839845	854.589782714844	-718.4433593750001	-396.5249328613282	887.650329589844	-1013.144592285156	-391.2938842773439	866.1993408203127	-801.4744873046877	-533.4366455078126	981.3277587890627	-893.6133422851565	-552.9232177734376	954.3840332031252	-920.7510986328127	-547.2384643554689	953.8723144531252	-864.4505615234377	-439.5415344238282	702.2759399414064	-1130.634155273438	-370.9693298339844	656.5661621093751	-1153.077514648438	-331.9161682128907	680.0556030273439	-1148.099731445313	-365.2167053222657	595.2683715820314	-1151.938110351563	-277.6292419433594	469.5333862304689	-1165.976806640625	-254.7332153320313	458.2223510742189	-1048.523315429688	-297.7282714843751	297.6268310546876	-1091.05419921875	-344.1126708984376	262.7225646972657	-1160.073120117188	-314.8412170410157	251.988021850586	-1124.802978515625	-357.9190979003907	185.6106262207032	-1091.493896484375	-451.613006591797	93.25106048583986	-1134.974487304688	-428.2394104003907	100.4519348144532	-1049.797119140625	-512.9287109375001	48.47286987304689	-1083.60888671875	-296.7348327636719	62.2355308532715	-1077.333374023438	-299.6504211425782	64.87355041503908	-1124.39697265625	-335.9280700683594	38.61510086059571	-1168.477172851563	-396.6392822265626	641.0434570312501	-694.5234985351564	-332.4166259765626	620.3173828125001	-684.7497558593751	-306.0565185546876	638.9047851562501	-690.6198120117189	-308.3015747070313	539.0836791992189	-696.4425659179689	-269.3009643554688	449.1376342773439	-697.8989868164064	-268.2920532226563	441.4709472656251	-816.0188598632815	-266.6381225585938	316.9060058593751	-726.1568603515626	-361.7536010742188	282.0466918945313	-680.5725097656251	-326.5917358398438	258.7188110351563	-697.8455810546876	-340.0312194824219	208.9831848144532	-725.6994018554689	-470.211639404297	96.60202789306643	-710.4697265625001	-442.2035217285157	98.81194305419925	-793.4503173828127	-525.2991943359376	50.13360977172853	-760.1380615234376	-311.7221679687501	63.0807456970215	-753.5554199218751	-310.7595214843751	61.25955200195314	-715.8566284179689	-352.2739868164063	40.36462783813477	-667.1213989257814	
